<?xml version="1.0" encoding="UTF-8"?>
<svg version="1.1" xmlns="http://www.w3.org/2000/svg" width="128" height="128">
<path d="M0 0 C5.77245298 4.29773872 10.2772843 9.97577526 11.60546875 17.1953125 C11.67235466 19.11092504 11.69078594 21.02866842 11.66796875 22.9453125 C11.65894531 23.93015625 11.64992188 24.915 11.640625 25.9296875 C11.62902344 26.67734375 11.61742188 27.425 11.60546875 28.1953125 C12.73984375 27.7003125 13.87421875 27.2053125 15.04296875 26.6953125 C21.97300036 24.13315293 28.50794576 24.52252422 35.40234375 27.08984375 C43.07865198 30.94160834 47.91899759 37.13589902 50.60546875 45.1953125 C51.40687728 55.41655566 50.30958492 62.37455851 44.85546875 70.9453125 C40.2435761 75.55720515 34.89197801 78.46652245 28.60546875 80.1953125 C29.38921875 81.0615625 30.17296875 81.9278125 30.98046875 82.8203125 C36.08348523 88.46048861 36.1026276 95.41052555 35.98046875 102.6484375 C35.24450729 109.60940635 32.351457 114.90485721 27.23046875 119.6328125 C19.72443524 125.2944147 12.92919199 126.34693627 3.60546875 125.1953125 C-3.95055316 122.95955807 -8.34467393 118.82983486 -12.39453125 112.1953125 C-13.07515625 112.8965625 -13.75578125 113.5978125 -14.45703125 114.3203125 C-16.54142129 116.38703822 -18.65493672 118.41375145 -20.83203125 120.3828125 C-21.36699219 120.87136719 -21.90195312 121.35992187 -22.453125 121.86328125 C-28.67481646 126.13208766 -36.1649344 126.01087219 -43.39453125 125.1953125 C-51.91795654 122.58348314 -56.73972248 117.53150016 -61.26953125 110.1328125 C-63.95819941 103.00059697 -63.53660783 93.95106746 -60.58203125 87.0078125 C-59.20495954 84.24839295 -57.65650838 82.28877558 -55.39453125 80.1953125 C-56.39033203 79.83179687 -56.39033203 79.83179687 -57.40625 79.4609375 C-65.48070491 76.39618089 -71.08768685 72.84185028 -75.39453125 65.1953125 C-78.49500268 57.44953545 -78.96778451 48.09046657 -75.83203125 40.2578125 C-72.39877865 33.7431247 -67.27206826 28.88652264 -60.39453125 26.1953125 C-52.61361427 23.88206691 -45.68126107 25.01564858 -38.39453125 28.1953125 C-38.4409375 27.51726563 -38.48734375 26.83921875 -38.53515625 26.140625 C-38.84517046 18.14668712 -37.74922275 11.60457287 -32.81640625 5.12109375 C-24.50324406 -3.8099386 -10.82647128 -6.60206991 0 0 Z M-25.9765625 10.66796875 C-29.79326635 15.32060774 -30.83760179 20.25295468 -30.39453125 26.1953125 C-28.57873301 33.62840472 -24.95658441 40.46536779 -21.39453125 47.1953125 C-20.07453125 47.1953125 -18.75453125 47.1953125 -17.39453125 47.1953125 C-17.06453125 40.9253125 -16.73453125 34.6553125 -16.39453125 28.1953125 C-14.41453125 28.5253125 -12.43453125 28.8553125 -10.39453125 29.1953125 C-10.06453125 35.1353125 -9.73453125 41.0753125 -9.39453125 47.1953125 C-6.91953125 46.7003125 -6.91953125 46.7003125 -4.39453125 46.1953125 C-2.84902631 43.66713415 -1.73537165 41.47420699 -0.64453125 38.7578125 C-0.34305176 38.03078125 -0.04157227 37.30375 0.26904297 36.5546875 C3.03161824 29.61512308 4.79089415 23.30383346 2.60546875 15.9453125 C0.70816974 11.61490319 -2.48649737 8.7621802 -6.39453125 6.1953125 C-13.81899137 3.72049246 -20.3286083 5.4104904 -25.9765625 10.66796875 Z M-65.70703125 40.6328125 C-68.95706651 45.56805123 -69.89846183 49.2489316 -69.39453125 55.1953125 C-68.17433961 60.91912057 -65.80985533 64.28963665 -61.30859375 67.96875 C-54.78028778 72.15219505 -47.93458878 72.03244289 -40.4921875 70.66015625 C-36.82414883 69.72895367 -36.82414883 69.72895367 -33.39453125 68.1953125 C-32.55639495 66.1597673 -32.55639495 66.1597673 -32.39453125 64.1953125 C-33.37292969 63.81439453 -33.37292969 63.81439453 -34.37109375 63.42578125 C-39.16497027 61.53792722 -43.83460227 59.59527512 -48.39453125 57.1953125 C-48.06453125 55.5453125 -47.73453125 53.8953125 -47.39453125 52.1953125 C-41.252989 52.78022129 -35.38773276 53.73597502 -29.39453125 55.1953125 C-28.73453125 54.2053125 -28.07453125 53.2153125 -27.39453125 52.1953125 C-32.10746923 43.67868502 -36.69122072 38.54696776 -45.39453125 34.1953125 C-54.02431775 33.32231586 -59.58157425 34.17624972 -65.70703125 40.6328125 Z M5.60546875 44.1953125 C2.4680267 48.50380946 2.4680267 48.50380946 1.85546875 53.6328125 C2.10296875 54.1484375 2.35046875 54.6640625 2.60546875 55.1953125 C6.11891883 54.77369849 9.31738563 54.29525971 12.66796875 53.1328125 C15.80658175 52.1311275 18.33247707 52.03945575 21.60546875 52.1953125 C22.73046875 55.9453125 22.73046875 55.9453125 21.60546875 58.1953125 C18.4167859 59.29049095 15.22297493 60.25864105 11.9765625 61.1640625 C9.69567914 61.81989768 9.69567914 61.81989768 6.60546875 63.1953125 C5.51840383 65.24358914 5.51840383 65.24358914 5.60546875 67.1953125 C6.67796875 67.6696875 7.75046875 68.1440625 8.85546875 68.6328125 C9.45875 68.89964844 10.06203125 69.16648438 10.68359375 69.44140625 C16.72656045 71.81191961 23.6639712 72.35652811 29.92578125 70.51171875 C35.74635359 67.84487857 39.28609044 64.1482068 41.91796875 58.2578125 C43.31338296 52.04187645 42.90796576 47.60291378 39.8828125 42.05859375 C37.24199111 38.2063864 34.07178998 35.68408624 29.60546875 34.1953125 C19.00422753 32.99646454 12.51014656 36.13985506 5.60546875 44.1953125 Z M-22.39453125 60.1953125 C-22.72453125 60.5253125 -23.05453125 60.8553125 -23.39453125 61.1953125 C-24.00118305 66.31726387 -24.00118305 66.31726387 -22.34765625 71.0234375 C-19.65501645 74.28628337 -17.85977248 76.02880781 -13.64453125 76.5078125 C-9.53685896 76.11284401 -7.56526511 74.7895493 -4.39453125 72.1953125 C-2.13955272 69.45012124 -2.39453125 67.90060563 -2.39453125 64.2578125 C-2.95454041 60.81407802 -3.53644007 60.02917535 -5.95703125 57.1953125 C-12.61227491 53.32317074 -17.40033655 53.99040393 -22.39453125 60.1953125 Z M-49.61328125 86.15234375 C-53.04468284 90.08792057 -54.2072597 93.44744472 -54.76953125 98.6953125 C-53.94275718 106.41187047 -51.09987438 109.94042038 -45.33203125 114.8125 C-41.4836994 117.55909168 -37.99015998 117.57200338 -33.39453125 117.1953125 C-28.16647969 115.40060823 -24.26574603 113.0148516 -21.39453125 108.1953125 C-17.486779 100.17627924 -16.88884256 93.03081761 -17.39453125 84.1953125 C-18.38453125 83.8653125 -19.37453125 83.5353125 -20.39453125 83.1953125 C-20.93722656 83.88238281 -21.47992188 84.56945312 -22.0390625 85.27734375 C-22.75449219 86.17839844 -23.46992187 87.07945313 -24.20703125 88.0078125 C-25.26857422 89.34779297 -25.26857422 89.34779297 -26.3515625 90.71484375 C-29.87976412 94.99860671 -29.87976412 94.99860671 -31.39453125 96.1953125 C-32.71453125 96.1953125 -34.03453125 96.1953125 -35.39453125 96.1953125 C-36.14453125 94.0390625 -36.14453125 94.0390625 -36.39453125 91.1953125 C-34.52958396 88.1906752 -32.34119841 85.63116895 -30.08203125 82.9140625 C-28.0969146 80.32233035 -28.0969146 80.32233035 -28.64453125 77.3515625 C-28.89203125 76.64 -29.13953125 75.9284375 -29.39453125 75.1953125 C-36.6452475 75.1953125 -44.68140943 81.39022838 -49.61328125 86.15234375 Z M2.60546875 76.1953125 C2.60546875 81.53868452 4.88268251 83.56308493 8.07421875 87.66015625 C9.77231403 90.47154358 9.92818492 91.97391359 9.60546875 95.1953125 C7.95546875 95.5253125 6.30546875 95.8553125 4.60546875 96.1953125 C1.30546875 91.9053125 -1.99453125 87.6153125 -5.39453125 83.1953125 C-6.71453125 83.5253125 -8.03453125 83.8553125 -9.39453125 84.1953125 C-9.96170521 93.8792827 -8.79698328 103.51237006 -2.39453125 111.1953125 C1.43634842 114.89513576 4.47387852 117.03443777 9.91796875 117.4453125 C16.09396131 117.02660114 19.33560159 114.72264175 23.41796875 110.2578125 C26.70548333 106.49132228 27.44512775 103.86285887 27.91796875 98.9453125 C27.36746807 92.33930437 24.73545702 87.94548118 19.91796875 83.4453125 C14.71651179 79.19664579 9.3929991 76.1953125 2.60546875 76.1953125 Z " fill="#000000" transform="translate(77.39453125,2.8046875)"/>
</svg>
